SplineFontDB: 3.2
FontName: YuFanXinYu-Light
FullName: YuFanXinYu-Light
FamilyName: YuFanXinYu-Light
Weight: Light
Copyright: Copyright (c) 2022, YuFan
UComments: "2022-3-2: Created with FontForge (http://fontforge.org)"
Version: 001.000
ItalicAngle: 0
UnderlinePosition: -90
UnderlineWidth: 45
Ascent: 720
Descent: 180
InvalidEm: 0
LayerCount: 2
Layer: 0 0 "+gMxmbwAA" 1
Layer: 1 0 "+Uk1mbwAA" 0
XUID: [1021 811 374436730 30709]
StyleMap: 0x0000
FSType: 0
OS2Version: 3
OS2_WeightWidthSlopeOnly: 0
OS2_UseTypoMetrics: 1
CreationTime: 1646206483
ModificationTime: 1646403748
PfmFamily: 81
TTFWeight: 300
TTFWidth: 5
LineGap: 81
VLineGap: 0
OS2TypoAscent: 0
OS2TypoAOffset: 1
OS2TypoDescent: 0
OS2TypoDOffset: 1
OS2TypoLinegap: 81
OS2WinAscent: 0
OS2WinAOffset: 1
OS2WinDescent: 0
OS2WinDOffset: 1
HheadAscent: 0
HheadAOffset: 1
HheadDescent: 0
HheadDOffset: 1
OS2Vendor: 'PfEd'
OS2CodePages: 00040001.00000000
MarkAttachClasses: 1
DEI: 91125
LangName: 1033 "" "" "Regular" "" "" "" "" "" "YuFan" "" "" "" "" "" "" "" "YuFanXinYu" "Light"
LangName: 2052 "" "+T1l+QWWwi+0A--Light" "Regular" "" "+T1l+QWWwi+0A--Light" "" "" "" "+T1l+QQAA" "" "" "" "" "" "" "" "+T1l+QWWwi+0A" "Light"
Encoding: UnicodeBmp
UnicodeInterp: none
NameList: AGL For New Fonts
DisplaySize: -48
AntiAlias: 1
FitToEm: 0
WinInfo: 22800 20 10
BeginPrivate: 0
EndPrivate
Grid
-900 1546 m 0
 1800 1546 l 1024
EndSplineSet
BeginChars: 65536 21

StartChar: uni4F59
Encoding: 20313 20313 1
Width: 720
Flags: HW
LayerCount: 2
Fore
SplineSet
668.5 368.5 m 2
 673.200195312 363.799804688 673.200195312 356.200195312 668.5 351.5 c 0
 663.799804688 346.799804688 656.200195312 346.799804688 651.5 351.5 c 2
 393.900390625 609.099609375 l 2
 375.200195312 627.799804688 344.799804688 627.799804688 326.099609375 609.099609375 c 2
 68.5 351.5 l 2
 66.099609375 349.200195312 63.099609375 348 60 348 c 0
 56.900390625 348 53.7998046875 349.200195312 51.5 351.5 c 0
 46.7998046875 356.200195312 46.7998046875 363.799804688 51.5 368.5 c 2
 309.099609375 626.099609375 l 2
 337.200195312 654.200195312 382.799804688 654.200195312 410.900390625 626.099609375 c 2
 668.5 368.5 l 2
480 228 m 2
 372 228 l 1
 372 -120 l 2
 372 -126.599609375 366.599609375 -132 360 -132 c 0
 353.400390625 -132 348 -126.599609375 348 -120 c 2
 348 228 l 1
 240 228 l 2
 200.299804688 228 168 260.299804688 168 300 c 2
 168 360 l 2
 168 366.599609375 173.400390625 372 180 372 c 0
 186.599609375 372 192 366.599609375 192 360 c 2
 192 300 l 2
 192 273.5 213.5 252 240 252 c 2
 348 252 l 1
 348 408 l 1
 240 408 l 2
 233.400390625 408 228 413.400390625 228 420 c 0
 228 426.599609375 233.400390625 432 240 432 c 2
 480 432 l 2
 486.599609375 432 492 426.599609375 492 420 c 0
 492 413.400390625 486.599609375 408 480 408 c 2
 372 408 l 1
 372 252 l 1
 480 252 l 2
 506.5 252 528 273.5 528 300 c 2
 528 360 l 2
 528 366.599609375 533.400390625 372 540 372 c 0
 546.599609375 372 552 366.599609375 552 360 c 2
 552 300 l 2
 552 260.299804688 519.700195312 228 480 228 c 2
120 132 m 0
 192.799804688 132 252 72.7998046875 252 0 c 0
 252 -72.7998046875 192.799804688 -132 120 -132 c 0
 113.400390625 -132 108 -126.599609375 108 -120 c 0
 108 -113.400390625 113.400390625 -108 120 -108 c 0
 179.599609375 -108 228 -59.599609375 228 0 c 0
 228 59.599609375 179.599609375 108 120 108 c 0
 113.400390625 108 108 113.400390625 108 120 c 0
 108 126.599609375 113.400390625 132 120 132 c 0
600 108 m 0
 540.400390625 108 492 59.599609375 492 0 c 0
 492 -59.599609375 540.400390625 -108 600 -108 c 0
 606.599609375 -108 612 -113.400390625 612 -120 c 0
 612 -126.599609375 606.599609375 -132 600 -132 c 0
 527.200195312 -132 468 -72.7998046875 468 0 c 0
 468 72.7998046875 527.200195312 132 600 132 c 0
 606.599609375 132 612 126.599609375 612 120 c 0
 612 113.400390625 606.599609375 108 600 108 c 0
EndSplineSet
EndChar

StartChar: uni65B0
Encoding: 26032 26032 2
Width: 720
Flags: HW
LayerCount: 2
Fore
SplineSet
252 480 m 2
 252 444.400390625 226 414.799804688 192 409 c 1
 192 312.700195312 l 1
 245.900390625 318.700195312 288 364.5 288 420 c 0
 288 426.599609375 293.400390625 432 300 432 c 0
 306.599609375 432 312 426.599609375 312 420 c 0
 312 351.299804688 259.200195312 294.700195312 192 288.599609375 c 1
 192 192 l 1
 300 192 l 2
 306.599609375 192 312 186.599609375 312 180 c 0
 312 173.400390625 306.599609375 168 300 168 c 2
 192 168 l 1
 192 71.400390625 l 1
 259.200195312 65.400390625 312 8.7001953125 312 -60 c 2
 312 -120 l 2
 312 -126.599609375 306.599609375 -132 300 -132 c 0
 293.400390625 -132 288 -126.599609375 288 -120 c 2
 288 -60 l 2
 288 -4.5 245.900390625 41.2998046875 192 47.2998046875 c 1
 192 -120 l 2
 192 -126.599609375 186.599609375 -132 180 -132 c 0
 173.400390625 -132 168 -126.599609375 168 -120 c 2
 168 47.2998046875 l 1
 114.099609375 41.2998046875 72 -4.5 72 -60 c 2
 72 -120 l 2
 72 -126.599609375 66.599609375 -132 60 -132 c 0
 53.400390625 -132 48 -126.599609375 48 -120 c 2
 48 -60 l 2
 48 8.7001953125 100.799804688 65.400390625 168 71.400390625 c 1
 168 168 l 1
 60 168 l 2
 53.400390625 168 48 173.400390625 48 180 c 0
 48 186.599609375 53.400390625 192 60 192 c 2
 168 192 l 1
 168 288.599609375 l 1
 100.799804688 294.599609375 48 351.299804688 48 420 c 0
 48 426.599609375 53.400390625 432 60 432 c 0
 66.599609375 432 72 426.599609375 72 420 c 0
 72 364.5 114.099609375 318.700195312 168 312.700195312 c 1
 168 409 l 1
 134 414.799804688 108 444.400390625 108 480 c 2
 108 588 l 1
 60 588 l 2
 53.400390625 588 48 593.400390625 48 600 c 0
 48 606.599609375 53.400390625 612 60 612 c 2
 168 612 l 1
 168 660 l 2
 168 666.599609375 173.400390625 672 180 672 c 0
 186.599609375 672 192 666.599609375 192 660 c 2
 192 612 l 1
 300 612 l 2
 306.599609375 612 312 606.599609375 312 600 c 0
 312 593.400390625 306.599609375 588 300 588 c 2
 252 588 l 1
 252 480 l 2
132 480 m 2
 132 453.5 153.5 432 180 432 c 0
 206.5 432 228 453.5 228 480 c 2
 228 588 l 1
 132 588 l 1
 132 480 l 2
660 432 m 2
 666.599609375 432 672 426.599609375 672 420 c 0
 672 413.400390625 666.599609375 408 660 408 c 2
 432 408 l 1
 432 -120 l 2
 432 -126.599609375 426.599609375 -132 420 -132 c 0
 413.400390625 -132 408 -126.599609375 408 -120 c 2
 408 540 l 2
 408 579.700195312 440.299804688 612 480 612 c 2
 600 612 l 2
 626.5 612 648 633.5 648 660 c 0
 648 666.599609375 653.400390625 672 660 672 c 0
 666.599609375 672 672 666.599609375 672 660 c 0
 672 620.299804688 639.700195312 588 600 588 c 2
 480 588 l 2
 453.5 588 432 566.5 432 540 c 2
 432 432 l 1
 660 432 l 2
600 312 m 0
 606.599609375 312 612 306.599609375 612 300 c 2
 612 -120 l 2
 612 -126.599609375 606.599609375 -132 600 -132 c 0
 593.400390625 -132 588 -126.599609375 588 -120 c 2
 588 300 l 2
 588 306.599609375 593.400390625 312 600 312 c 0
EndSplineSet
EndChar

StartChar: uni7E41
Encoding: 32321 32321 3
Width: 720
Flags: HW
LayerCount: 2
Fore
SplineSet
191.400390625 648 m 1
 185.400390625 580.799804688 128.700195312 528 60 528 c 0
 53.400390625 528 48 533.400390625 48 540 c 0
 48 546.599609375 53.400390625 552 60 552 c 0
 119.599609375 552 168 600.400390625 168 660 c 0
 168 666.599609375 173.400390625 672 180 672 c 2
 300 672 l 2
 306.599609375 672 312 666.599609375 312 660 c 0
 312 653.400390625 306.599609375 648 300 648 c 2
 191.400390625 648 l 1
480 -48 m 0
 519.700195312 -48 552 -80.2998046875 552 -120 c 0
 552 -126.599609375 546.599609375 -132 540 -132 c 0
 533.400390625 -132 528 -126.599609375 528 -120 c 0
 528 -93.5 506.5 -72 480 -72 c 0
 473.400390625 -72 468 -66.599609375 468 -60 c 0
 468 -53.400390625 473.400390625 -48 480 -48 c 0
240 -48 m 0
 246.599609375 -48 252 -53.400390625 252 -60 c 0
 252 -66.599609375 246.599609375 -72 240 -72 c 0
 213.5 -72 192 -93.5 192 -120 c 0
 192 -126.599609375 186.599609375 -132 180 -132 c 0
 173.400390625 -132 168 -126.599609375 168 -120 c 0
 168 -80.2998046875 200.299804688 -48 240 -48 c 0
540 72 m 2
 546.599609375 72 552 66.599609375 552 60 c 0
 552 53.400390625 546.599609375 48 540 48 c 2
 372 48 l 1
 372 -120 l 2
 372 -126.599609375 366.599609375 -132 360 -132 c 0
 353.400390625 -132 348 -126.599609375 348 -120 c 2
 348 48 l 1
 240 48 l 2
 200.299804688 48 168 80.2998046875 168 120 c 0
 168 126.599609375 173.400390625 132 180 132 c 0
 186.599609375 132 192 126.599609375 192 120 c 0
 192 93.5 213.5 72 240 72 c 2
 348 72 l 1
 348 168 l 1
 240 168 l 2
 200.299804688 168 168 200.299804688 168 240 c 0
 168 246.599609375 173.400390625 252 180 252 c 0
 186.599609375 252 192 246.599609375 192 240 c 0
 192 213.5 213.5 192 240 192 c 2
 348 192 l 1
 348 240 l 2
 348 246.599609375 353.400390625 252 360 252 c 0
 366.599609375 252 372 246.599609375 372 240 c 2
 372 192 l 1
 480 192 l 2
 486.599609375 192 492 186.599609375 492 180 c 0
 492 173.400390625 486.599609375 168 480 168 c 2
 372 168 l 1
 372 72 l 1
 540 72 l 2
288 348 m 1
 180 348 l 2
 140.299804688 348 108 380.299804688 108 420 c 0
 108 426.599609375 113.400390625 432 120 432 c 0
 126.599609375 432 132 426.599609375 132 420 c 0
 132 393.5 153.5 372 180 372 c 2
 288 372 l 1
 288 528 l 1
 240 528 l 2
 233.400390625 528 228 533.400390625 228 540 c 0
 228 546.599609375 233.400390625 552 240 552 c 2
 312 552 l 1
 312 372 l 1
 360 372 l 2
 366.599609375 372 372 366.599609375 372 360 c 0
 372 353.400390625 366.599609375 348 360 348 c 2
 312 348 l 1
 312 300 l 2
 312 293.400390625 306.599609375 288 300 288 c 0
 293.400390625 288 288 293.400390625 288 300 c 2
 288 348 l 1
171.5 471.5 m 2
 166.799804688 476.200195312 166.799804688 483.799804688 171.5 488.5 c 0
 176.200195312 493.200195312 183.799804688 493.200195312 188.5 488.5 c 2
 248.5 428.5 l 2
 253.200195312 423.799804688 253.200195312 416.200195312 248.5 411.5 c 0
 246.099609375 409.200195312 243.099609375 408 240 408 c 0
 236.900390625 408 233.799804688 409.200195312 231.5 411.5 c 2
 171.5 471.5 l 2
660 672 m 2
 666.599609375 672 672 666.599609375 672 660 c 0
 672 653.400390625 666.599609375 648 660 648 c 2
 600 648 l 2
 573.5 648 552 626.5 552 600 c 2
 552 552 l 1
 612 552 l 1
 612 480 l 2
 612 425.200195312 588.900390625 375.700195312 552 340.700195312 c 1
 552 300 l 2
 552 273.5 573.5 252 600 252 c 0
 606.599609375 252 612 246.599609375 612 240 c 0
 612 233.400390625 606.599609375 228 600 228 c 0
 560.299804688 228 528 260.299804688 528 300 c 2
 528 321.299804688 l 1
 497.200195312 300.299804688 460 288 420 288 c 0
 413.400390625 288 408 293.400390625 408 300 c 0
 408 306.599609375 413.400390625 312 420 312 c 0
 461.099609375 312 498.799804688 326.799804688 528 351.400390625 c 1
 528 360 l 2
 528 386.5 506.5 408 480 408 c 2
 420 408 l 2
 413.400390625 408 408 413.400390625 408 420 c 0
 408 426.599609375 413.400390625 432 420 432 c 2
 480 432 l 2
 514.799804688 432 543.900390625 407.200195312 550.599609375 374.400390625 c 1
 574 403.299804688 588 440 588 480 c 2
 588 528 l 1
 420 528 l 2
 413.400390625 528 408 533.400390625 408 540 c 0
 408 546.599609375 413.400390625 552 420 552 c 2
 528 552 l 1
 528 600 l 2
 528 639.700195312 560.299804688 672 600 672 c 2
 660 672 l 2
EndSplineSet
EndChar

StartChar: uni8BED
Encoding: 35821 35821 4
Width: 720
Flags: HW
LayerCount: 2
Fore
SplineSet
120 648 m 2
 113.400390625 648 108 653.400390625 108 660 c 0
 108 666.599609375 113.400390625 672 120 672 c 2
 240 672 l 2
 246.599609375 672 252 666.599609375 252 660 c 0
 252 653.400390625 246.599609375 648 240 648 c 2
 120 648 l 2
300 552 m 2
 306.599609375 552 312 546.599609375 312 540 c 0
 312 533.400390625 306.599609375 528 300 528 c 2
 60 528 l 2
 53.400390625 528 48 533.400390625 48 540 c 0
 48 546.599609375 53.400390625 552 60 552 c 2
 300 552 l 2
300 432 m 2
 306.599609375 432 312 426.599609375 312 420 c 0
 312 413.400390625 306.599609375 408 300 408 c 2
 60 408 l 2
 53.400390625 408 48 413.400390625 48 420 c 0
 48 426.599609375 53.400390625 432 60 432 c 2
 300 432 l 2
300 312 m 2
 306.599609375 312 312 306.599609375 312 300 c 0
 312 293.400390625 306.599609375 288 300 288 c 2
 60 288 l 2
 53.400390625 288 48 293.400390625 48 300 c 0
 48 306.599609375 53.400390625 312 60 312 c 2
 300 312 l 2
660 312 m 2
 666.599609375 312 672 306.599609375 672 300 c 0
 672 293.400390625 666.599609375 288 660 288 c 2
 420 288 l 2
 413.400390625 288 408 293.400390625 408 300 c 0
 408 306.599609375 413.400390625 312 420 312 c 2
 468 312 l 1
 468 528 l 1
 420 528 l 2
 413.400390625 528 408 533.400390625 408 540 c 0
 408 546.599609375 413.400390625 552 420 552 c 2
 468 552 l 1
 468 648 l 1
 420 648 l 2
 413.400390625 648 408 653.400390625 408 660 c 0
 408 666.599609375 413.400390625 672 420 672 c 2
 660 672 l 2
 666.599609375 672 672 666.599609375 672 660 c 0
 672 653.400390625 666.599609375 648 660 648 c 2
 492 648 l 1
 492 552 l 1
 540 552 l 2
 579.700195312 552 612 519.700195312 612 480 c 2
 612 312 l 1
 660 312 l 2
492 528 m 1
 492 312 l 1
 588 312 l 1
 588 480 l 2
 588 506.5 566.5 528 540 528 c 2
 492 528 l 1
240 192 m 0
 246.599609375 192 252 186.599609375 252 180 c 2
 252 -60 l 2
 252 -99.7001953125 219.700195312 -132 180 -132 c 0
 140.299804688 -132 108 -99.7001953125 108 -60 c 2
 108 180 l 2
 108 186.599609375 113.400390625 192 120 192 c 0
 126.599609375 192 132 186.599609375 132 180 c 2
 132 132 l 1
 228 132 l 1
 228 180 l 2
 228 186.599609375 233.400390625 192 240 192 c 0
180 -108 m 0
 206.5 -108 228 -86.5 228 -60 c 2
 228 108 l 1
 132 108 l 1
 132 -60 l 2
 132 -86.5 153.5 -108 180 -108 c 0
660 192 m 0
 666.599609375 192 672 186.599609375 672 180 c 2
 672 -60 l 2
 672 -99.7001953125 639.700195312 -132 600 -132 c 2
 480 -132 l 2
 440.299804688 -132 408 -99.7001953125 408 -60 c 2
 408 180 l 2
 408 186.599609375 413.400390625 192 420 192 c 0
 426.599609375 192 432 186.599609375 432 180 c 2
 432 132 l 1
 648 132 l 1
 648 180 l 2
 648 186.599609375 653.400390625 192 660 192 c 0
600 -108 m 2
 626.5 -108 648 -86.5 648 -60 c 2
 648 108 l 1
 432 108 l 1
 432 -60 l 2
 432 -86.5 453.5 -108 480 -108 c 2
 600 -108 l 2
EndSplineSet
EndChar

StartChar: comma
Encoding: 44 44 5
Width: 360
Flags: HW
LayerCount: 2
Fore
SplineSet
185.400390625 10.7001953125 m 0
 191.299804688 7.7998046875 193.700195312 0.599609375 190.799804688 -5.5 c 2
 130.799804688 -125.5 l 2
 128.700195312 -129.700195312 124.5 -132.099609375 120.099609375 -132.099609375 c 0
 118.299804688 -132.099609375 116.400390625 -131.700195312 114.700195312 -130.799804688 c 0
 108.700195312 -127.799804688 106.299804688 -120.599609375 109.299804688 -114.700195312 c 2
 169.299804688 5.2998046875 l 2
 172.299804688 11.2998046875 179.5 13.7001953125 185.400390625 10.7001953125 c 0
EndSplineSet
EndChar

StartChar: period
Encoding: 46 46 6
Width: 360
Flags: HW
LayerCount: 2
Fore
SplineSet
120 -48 m 0
 126.599609375 -48 132 -53.400390625 132 -60 c 2
 132 -120 l 2
 132 -126.599609375 126.599609375 -132 120 -132 c 0
 113.400390625 -132 108 -126.599609375 108 -120 c 2
 108 -60 l 2
 108 -53.400390625 113.400390625 -48 120 -48 c 0
EndSplineSet
EndChar

StartChar: uni3002
Encoding: 12290 12290 7
Width: 720
Flags: HW
LayerCount: 2
Fore
SplineSet
180 12 m 0
 219.700195312 12 252 -20.2998046875 252 -60 c 0
 252 -99.7001953125 219.700195312 -132 180 -132 c 0
 140.299804688 -132 108 -99.7001953125 108 -60 c 0
 108 -20.2998046875 140.299804688 12 180 12 c 0
180 -108 m 0
 206.5 -108 228 -86.5 228 -60 c 0
 228 -33.5 206.5 -12 180 -12 c 0
 153.5 -12 132 -33.5 132 -60 c 0
 132 -86.5 153.5 -108 180 -108 c 0
EndSplineSet
EndChar

StartChar: uniFF0C
Encoding: 65292 65292 8
Width: 720
Flags: HW
LayerCount: 2
Fore
SplineSet
240 12 m 0
 246.599609375 12 252 6.599609375 252 0 c 2
 252 -60 l 2
 252 -99.7001953125 219.700195312 -132 180 -132 c 0
 173.400390625 -132 168 -126.599609375 168 -120 c 0
 168 -113.400390625 173.400390625 -108 180 -108 c 0
 206.5 -108 228 -86.5 228 -60 c 2
 228 0 l 2
 228 6.599609375 233.400390625 12 240 12 c 0
EndSplineSet
EndChar

StartChar: exclam
Encoding: 33 33 9
Width: 360
Flags: HW
LayerCount: 2
Fore
SplineSet
120 -48 m 0
 126.599609375 -48 132 -53.400390625 132 -60 c 2
 132 -120 l 2
 132 -126.599609375 126.599609375 -132 120 -132 c 0
 113.400390625 -132 108 -126.599609375 108 -120 c 2
 108 -60 l 2
 108 -53.400390625 113.400390625 -48 120 -48 c 0
120 492 m 0
 126.599609375 492 132 486.599609375 132 480 c 2
 132 60 l 2
 132 53.400390625 126.599609375 48 120 48 c 0
 113.400390625 48 108 53.400390625 108 60 c 2
 108 480 l 2
 108 486.599609375 113.400390625 492 120 492 c 0
EndSplineSet
EndChar

StartChar: quotedbl
Encoding: 34 34 10
Width: 360
Flags: HW
LayerCount: 2
Fore
SplineSet
120 492 m 0
 126.599609375 492 132 486.599609375 132 480 c 2
 132 360 l 2
 132 353.400390625 126.599609375 348 120 348 c 0
 113.400390625 348 108 353.400390625 108 360 c 2
 108 480 l 2
 108 486.599609375 113.400390625 492 120 492 c 0
240 492 m 0
 246.599609375 492 252 486.599609375 252 480 c 2
 252 360 l 2
 252 353.400390625 246.599609375 348 240 348 c 0
 233.400390625 348 228 353.400390625 228 360 c 2
 228 480 l 2
 228 486.599609375 233.400390625 492 240 492 c 0
EndSplineSet
EndChar

StartChar: uniFF01
Encoding: 65281 65281 11
Width: 720
Flags: HW
LayerCount: 2
Fore
SplineSet
180 -48 m 0
 186.599609375 -48 192 -53.400390625 192 -60 c 2
 192 -120 l 2
 192 -126.599609375 186.599609375 -132 180 -132 c 0
 173.400390625 -132 168 -126.599609375 168 -120 c 2
 168 -60 l 2
 168 -53.400390625 173.400390625 -48 180 -48 c 0
180 492 m 0
 186.599609375 492 192 486.599609375 192 480 c 2
 192 60 l 2
 192 53.400390625 186.599609375 48 180 48 c 0
 173.400390625 48 168 53.400390625 168 60 c 2
 168 480 l 2
 168 486.599609375 173.400390625 492 180 492 c 0
EndSplineSet
EndChar

StartChar: numbersign
Encoding: 35 35 12
Width: 360
Flags: HW
LayerCount: 2
Fore
SplineSet
300 132 m 2
 306.599609375 132 312 126.599609375 312 120 c 0
 312 113.400390625 306.599609375 108 300 108 c 2
 252 108 l 1
 252 0 l 2
 252 -6.599609375 246.599609375 -12 240 -12 c 0
 233.400390625 -12 228 -6.599609375 228 0 c 2
 228 108 l 1
 132 108 l 1
 132 0 l 2
 132 -6.599609375 126.599609375 -12 120 -12 c 0
 113.400390625 -12 108 -6.599609375 108 0 c 2
 108 108 l 1
 60 108 l 2
 53.400390625 108 48 113.400390625 48 120 c 0
 48 126.599609375 53.400390625 132 60 132 c 2
 108 132 l 1
 108 288 l 1
 60 288 l 2
 53.400390625 288 48 293.400390625 48 300 c 0
 48 306.599609375 53.400390625 312 60 312 c 2
 108 312 l 1
 108 420 l 2
 108 426.599609375 113.400390625 432 120 432 c 0
 126.599609375 432 132 426.599609375 132 420 c 2
 132 312 l 1
 228 312 l 1
 228 420 l 2
 228 426.599609375 233.400390625 432 240 432 c 0
 246.599609375 432 252 426.599609375 252 420 c 2
 252 312 l 1
 300 312 l 2
 306.599609375 312 312 306.599609375 312 300 c 0
 312 293.400390625 306.599609375 288 300 288 c 2
 252 288 l 1
 252 132 l 1
 300 132 l 2
132 132 m 1
 228 132 l 1
 228 288 l 1
 132 288 l 1
 132 132 l 1
EndSplineSet
EndChar

StartChar: dollar
Encoding: 36 36 13
Width: 360
Flags: HW
LayerCount: 2
Fore
SplineSet
192 191.400390625 m 1
 259.200195312 185.400390625 312 128.700195312 312 60 c 0
 312 -8.7001953125 259.200195312 -65.2998046875 192 -71.400390625 c 1
 192 -120 l 2
 192 -126.599609375 186.599609375 -132 180 -132 c 0
 173.400390625 -132 168 -126.599609375 168 -120 c 2
 168 -71.400390625 l 1
 100.799804688 -65.400390625 48 -8.7001953125 48 60 c 0
 48 66.599609375 53.400390625 72 60 72 c 0
 66.599609375 72 72 66.599609375 72 60 c 0
 72 4.5 114.099609375 -41.2998046875 168 -47.2998046875 c 1
 168 168.599609375 l 1
 100.799804688 174.599609375 48 231.299804688 48 300 c 0
 48 368.700195312 100.799804688 425.400390625 168 431.400390625 c 1
 168 480 l 2
 168 486.599609375 173.400390625 492 180 492 c 0
 186.599609375 492 192 486.599609375 192 480 c 2
 192 431.400390625 l 1
 259.200195312 425.400390625 312 368.700195312 312 300 c 0
 312 293.400390625 306.599609375 288 300 288 c 0
 293.400390625 288 288 293.400390625 288 300 c 0
 288 355.5 245.900390625 401.299804688 192 407.299804688 c 1
 192 191.400390625 l 1
72 300 m 0
 72 244.5 114.099609375 198.700195312 168 192.599609375 c 1
 168 407.299804688 l 1
 114.099609375 401.299804688 72 355.5 72 300 c 0
192 -47.2998046875 m 1
 245.900390625 -41.2998046875 288 4.5 288 60 c 0
 288 115.5 245.900390625 161.299804688 192 167.299804688 c 1
 192 -47.2998046875 l 1
EndSplineSet
EndChar

StartChar: percent
Encoding: 37 37 14
Width: 360
Flags: HW
LayerCount: 2
Fore
SplineSet
120 228 m 0
 80.2998046875 228 48 260.299804688 48 300 c 0
 48 339.700195312 80.2998046875 372 120 372 c 0
 159.700195312 372 192 339.700195312 192 300 c 0
 192 260.299804688 159.700195312 228 120 228 c 0
120 348 m 0
 93.5 348 72 326.5 72 300 c 0
 72 273.5 93.5 252 120 252 c 0
 146.5 252 168 273.5 168 300 c 0
 168 326.5 146.5 348 120 348 c 0
240 12 m 0
 279.700195312 12 312 -20.2998046875 312 -60 c 0
 312 -99.7001953125 279.700195312 -132 240 -132 c 0
 200.299804688 -132 168 -99.7001953125 168 -60 c 0
 168 -20.2998046875 200.299804688 12 240 12 c 0
240 -108 m 0
 266.5 -108 288 -86.5 288 -60 c 0
 288 -33.5 266.5 -12 240 -12 c 0
 213.5 -12 192 -33.5 192 -60 c 0
 192 -86.5 213.5 -108 240 -108 c 0
306.700195312 310 m 0
 312.200195312 306.299804688 313.700195312 298.900390625 310 293.400390625 c 2
 70 -66.599609375 l 2
 67.7001953125 -70 63.900390625 -71.900390625 60 -71.900390625 c 0
 57.7998046875 -71.900390625 55.400390625 -71.2998046875 53.400390625 -69.900390625 c 0
 47.900390625 -66.2998046875 46.400390625 -58.7998046875 50.099609375 -53.2998046875 c 2
 290.099609375 306.700195312 l 2
 293.700195312 312.200195312 301.200195312 313.700195312 306.700195312 310 c 0
EndSplineSet
EndChar

StartChar: ampersand
Encoding: 38 38 15
Width: 360
Flags: HW
LayerCount: 2
Fore
SplineSet
311 -115.299804688 m 2
 313.599609375 -121.400390625 310.799804688 -128.400390625 304.599609375 -131 c 0
 303.099609375 -131.700195312 301.5 -132 299.900390625 -132 c 0
 295.299804688 -132 290.900390625 -129.299804688 288.900390625 -124.700195312 c 2
 256 -47.7998046875 l 1
 234.5 -63.099609375 208.299804688 -72 180 -72 c 0
 107.200195312 -72 48 -12.7998046875 48 60 c 0
 48 124 93.7998046875 177.5 154.200195312 189.400390625 c 1
 108.900390625 295.200195312 l 2
 106.299804688 301.299804688 109.099609375 308.400390625 115.200195312 311 c 0
 121.299804688 313.599609375 128.400390625 310.799804688 131 304.700195312 c 2
 179.299804688 192 l 2
 179.599609375 192 179.799804688 192 180 192 c 0
 239.599609375 192 288 240.400390625 288 300 c 0
 288 359.599609375 239.599609375 408 180 408 c 2
 120 408 l 2
 113.400390625 408 108 413.400390625 108 420 c 0
 108 426.599609375 113.400390625 432 120 432 c 2
 180 432 l 2
 252.799804688 432 312 372.799804688 312 300 c 0
 312 230.400390625 257.900390625 173.200195312 189.400390625 168.299804688 c 1
 264.599609375 -7.099609375 l 1
 279.299804688 11.2998046875 288 34.599609375 288 59.900390625 c 2
 288 119.900390625 l 2
 288 126.5 293.400390625 131.900390625 300 131.900390625 c 0
 306.599609375 131.900390625 312 126.5 312 119.900390625 c 2
 312 59.900390625 l 2
 312 24.5 297.900390625 -7.7998046875 275.099609375 -31.5 c 1
 311 -115.299804688 l 2
180 -48 m 0
 205 -48 228 -39.5 246.299804688 -25.2001953125 c 1
 164 166.799804688 l 1
 112 159.099609375 72 114.099609375 72 60 c 0
 72 0.400390625 120.400390625 -48 180 -48 c 0
EndSplineSet
EndChar

StartChar: quotesingle
Encoding: 39 39 16
Width: 360
Flags: HW
LayerCount: 2
Fore
SplineSet
180 492 m 0
 186.599609375 492 192 486.599609375 192 480 c 2
 192 360 l 2
 192 353.400390625 186.599609375 348 180 348 c 0
 173.400390625 348 168 353.400390625 168 360 c 2
 168 480 l 2
 168 486.599609375 173.400390625 492 180 492 c 0
EndSplineSet
EndChar

StartChar: parenleft
Encoding: 40 40 17
Width: 360
Flags: HW
LayerCount: 2
Fore
SplineSet
300 -108 m 0
 306.599609375 -108 312 -113.400390625 312 -120 c 0
 312 -126.599609375 306.599609375 -132 300 -132 c 0
 194.099609375 -132 108 -45.900390625 108 60 c 2
 108 300 l 2
 108 405.900390625 194.099609375 492 300 492 c 0
 306.599609375 492 312 486.599609375 312 480 c 0
 312 473.400390625 306.599609375 468 300 468 c 0
 207.400390625 468 132 392.599609375 132 300 c 2
 132 60 l 2
 132 -32.599609375 207.400390625 -108 300 -108 c 0
EndSplineSet
EndChar

StartChar: parenright
Encoding: 41 41 18
Width: 360
Flags: HW
LayerCount: 2
Fore
SplineSet
60 492 m 0
 165.900390625 492 252 405.900390625 252 300 c 2
 252 60 l 2
 252 -45.900390625 165.900390625 -132 60 -132 c 0
 53.400390625 -132 48 -126.599609375 48 -120 c 0
 48 -113.400390625 53.400390625 -108 60 -108 c 0
 152.599609375 -108 228 -32.599609375 228 60 c 2
 228 300 l 2
 228 392.599609375 152.599609375 468 60 468 c 0
 53.400390625 468 48 473.400390625 48 480 c 0
 48 486.599609375 53.400390625 492 60 492 c 0
EndSplineSet
EndChar

StartChar: asterisk
Encoding: 42 42 19
Width: 360
Flags: HW
LayerCount: 2
Fore
SplineSet
197 240 m 1
 308.5 128.5 l 2
 313.200195312 123.799804688 313.200195312 116.200195312 308.5 111.5 c 0
 306.099609375 109.200195312 303.099609375 108 300 108 c 0
 296.900390625 108 293.799804688 109.200195312 291.5 111.5 c 2
 192 211 l 1
 192 60 l 2
 192 53.400390625 186.599609375 48 180 48 c 0
 173.400390625 48 168 53.400390625 168 60 c 2
 168 211 l 1
 68.5 111.5 l 2
 66.099609375 109.200195312 63.099609375 108 60 108 c 0
 56.900390625 108 53.7998046875 109.200195312 51.5 111.5 c 0
 46.7998046875 116.200195312 46.7998046875 123.799804688 51.5 128.5 c 2
 163 240 l 1
 51.5 351.5 l 2
 46.7998046875 356.200195312 46.7998046875 363.799804688 51.5 368.5 c 0
 56.2001953125 373.200195312 63.7998046875 373.200195312 68.5 368.5 c 2
 168 269 l 1
 168 420 l 2
 168 426.599609375 173.400390625 432 180 432 c 0
 186.599609375 432 192 426.599609375 192 420 c 2
 192 269 l 1
 291.5 368.5 l 2
 296.200195312 373.200195312 303.799804688 373.200195312 308.5 368.5 c 0
 313.200195312 363.799804688 313.200195312 356.200195312 308.5 351.5 c 2
 197 240 l 1
EndSplineSet
EndChar

StartChar: plus
Encoding: 43 43 20
Width: 360
Flags: HW
LayerCount: 2
Fore
SplineSet
300 192 m 2
 306.599609375 192 312 186.599609375 312 180 c 0
 312 173.400390625 306.599609375 168 300 168 c 2
 192 168 l 1
 192 60 l 2
 192 53.400390625 186.599609375 48 180 48 c 0
 173.400390625 48 168 53.400390625 168 60 c 2
 168 168 l 1
 60 168 l 2
 53.400390625 168 48 173.400390625 48 180 c 0
 48 186.599609375 53.400390625 192 60 192 c 2
 168 192 l 1
 168 300 l 2
 168 306.599609375 173.400390625 312 180 312 c 0
 186.599609375 312 192 306.599609375 192 300 c 2
 192 192 l 1
 300 192 l 2
EndSplineSet
EndChar
